<svg width="99" height="50" viewBox="0 0 99 50" fill="none" xmlns="http://www.w3.org/2000/svg">
<path d="M16.4767 1.72698C15.9569 4.65691 16.0987 7.3033 17.0674 11.6509C17.54 13.7775 17.9181 15.6205 17.9181 15.7387C17.9181 16.164 17.4455 15.9277 14.8464 14.1556C10.924 11.4855 8.46666 10.4459 9.7426 11.9817C11.0422 13.5649 11.5384 14.9589 11.5384 17.0382C11.5384 18.5741 10.7586 24.3867 10.4987 24.623C10.4751 24.6466 9.48268 23.7724 8.30126 22.6855C6.19832 20.7715 5.22955 20.0627 5.0169 20.2753C4.96964 20.3226 5.11141 21.0551 5.37133 21.8821C6.08018 24.1741 6.41098 26.3242 6.24558 27.6474C6.05655 29.2069 5.58398 32.1132 5.48947 32.2314C5.44221 32.2786 5.0169 31.9951 4.5207 31.5934C3.10299 30.4829 0.621997 28.947 0.243941 28.947C-0.015972 28.947 -0.063229 29.1597 0.078542 30.0339C0.480226 32.7748 3.29202 40.525 4.8515 43.1477C6.05655 45.227 8.0886 47.141 10.1679 48.157C11.8692 48.984 15.5316 50.0709 16.1932 49.9291C16.3822 49.8819 15.8388 49.2675 14.8464 48.4405C12.9088 46.8102 10.4042 43.7857 8.86834 41.2338C7.04895 38.2094 7.11983 37.9495 9.52994 38.9891C10.4987 39.4144 10.9713 39.5326 11.1839 39.3435C11.373 39.2018 11.5147 38.1149 11.6092 36.3191C11.6801 34.8069 11.8928 33.082 12.0818 32.4913C12.4599 31.3099 12.4362 31.2862 12.9561 33.7909C13.2396 35.1377 15.2008 39.3435 15.5552 39.3435C16.0041 39.3435 16.0514 38.2094 15.6734 36.0119C15.3898 34.4524 15.3189 33.2238 15.4371 31.8297C15.6497 28.9943 15.8388 28.6398 16.3349 30.0812C16.7603 31.239 17.6581 32.3259 18.8868 33.2238L19.5484 33.6963L19.832 33.1765C20.1628 32.5385 19.9501 30.5301 19.3121 28.3327C18.6978 26.1588 18.4143 24.7175 18.6033 24.5757C18.6978 24.5285 18.9105 24.8593 19.0759 25.3318C19.2649 25.8044 20.0446 27.2458 20.848 28.569L22.2893 30.9554L22.2657 33.9799C22.2421 36.0592 22.313 36.9807 22.4784 36.9098C22.6201 36.8626 23.3054 35.7756 24.0142 34.4761C25.8809 31.0736 26.6133 30.3647 26.0226 32.5385C25.5264 34.4052 25.5264 38.0676 26.0463 39.2254L26.4479 40.1705L26.8496 39.6271C27.0859 39.3435 27.5112 38.422 27.842 37.6187C28.1492 36.8153 28.48 36.0592 28.5509 35.9647C28.9289 35.5394 29.3543 37.406 29.3543 39.3435C29.3306 41.0212 29.2125 41.6119 28.5981 43.0532C27.6766 45.2507 26.6842 46.6448 24.8176 48.5114L23.3054 50L24.8176 49.4329C27.2041 48.5114 30.9374 46.5502 32.0243 45.6287C33.4656 44.3764 35.1432 41.6828 35.8993 39.4853C36.5137 37.6423 37.8605 31.239 37.7187 30.8373C37.6715 30.7428 36.9154 31.4989 36.0175 32.5385C35.1432 33.5546 34.3635 34.3579 34.2926 34.287C34.2217 34.2162 34.2926 33.4601 34.458 32.5858C34.8124 30.7428 34.647 24.6702 34.1981 23.158L33.9146 22.2129L33.631 23.1817C33.2766 24.3631 31.9298 26.915 31.4099 27.3875C31.1736 27.6002 30.6538 27.8365 30.2521 27.9074C29.3543 28.0964 29.4015 28.4744 29.3779 22.0947C29.3779 17.1091 29.2361 16.6366 27.2513 14.4155L26.2117 13.2341L26.188 15.6678C26.188 17.0146 26.0699 18.5741 25.9281 19.1412C25.6682 20.1808 24.6522 21.4804 24.2978 21.2677C24.2032 21.1969 24.0378 20.0627 23.9433 18.7395C23.707 15.4551 23.2345 14.0611 20.8952 9.9497C18.7687 6.24002 17.6109 3.42823 17.3273 1.37255C17.2328 0.687324 17.0911 0.0729821 16.9729 0.00209657C16.8784 -0.0451605 16.6421 0.710952 16.4767 1.72698Z" fill="#181226"/>
<path d="M48.8 19.1C48.8 18.7933 48.8067 18.5667 48.82 18.42C48.8467 18.26 48.9133 18.08 49.02 17.88C49.2067 17.52 49.7267 17.34 50.58 17.34C51.5133 17.34 52.0667 17.5867 52.24 18.08C52.3067 18.3067 52.34 18.6533 52.34 19.12V30.24C52.34 30.56 52.3267 30.7933 52.3 30.94C52.2867 31.0867 52.2267 31.26 52.12 31.46C51.9333 31.82 51.4133 32 50.56 32C49.6267 32 49.08 31.7467 48.92 31.24C48.84 31.0267 48.8 30.6867 48.8 30.22V19.1ZM66.1567 29.52C66.3567 30 66.4567 30.3467 66.4567 30.56C66.4567 31.0667 66.0434 31.4933 65.2167 31.84C64.7901 32.0267 64.4434 32.12 64.1767 32.12C63.9234 32.12 63.7101 32.06 63.5367 31.94C63.3767 31.8067 63.2567 31.6733 63.1767 31.54C63.0434 31.2867 62.5234 30.08 61.6167 27.92L60.9967 27.96H58.4767V30.22C58.4767 30.5267 58.4634 30.76 58.4367 30.92C58.4234 31.0667 58.3634 31.24 58.2567 31.44C58.0701 31.8 57.5501 31.98 56.6967 31.98C55.7634 31.98 55.2167 31.7333 55.0567 31.24C54.9767 31.0133 54.9367 30.6667 54.9367 30.2V19.1C54.9367 18.7933 54.9434 18.5667 54.9567 18.42C54.9834 18.26 55.0501 18.08 55.1567 17.88C55.3434 17.52 55.8634 17.34 56.7167 17.34H61.0367C62.2101 17.34 63.3501 17.7667 64.4567 18.62C64.9901 19.0333 65.4301 19.5933 65.7767 20.3C66.1234 21.0067 66.2967 21.7933 66.2967 22.66C66.2967 24.1667 65.7967 25.4067 64.7967 26.38C65.0901 27.0867 65.5434 28.1333 66.1567 29.52ZM58.4767 24.42H61.0367C61.4234 24.42 61.8101 24.2733 62.1967 23.98C62.5834 23.6867 62.7767 23.2467 62.7767 22.66C62.7767 22.0733 62.5834 21.6333 62.1967 21.34C61.8101 21.0333 61.4101 20.88 60.9967 20.88H58.4767V24.42ZM68.5786 29.94C68.2319 29.5133 68.0586 29.1333 68.0586 28.8C68.0586 28.4533 68.3453 28 68.9186 27.44C69.2519 27.12 69.6053 26.96 69.9786 26.96C70.3519 26.96 70.8719 27.2933 71.5386 27.96C71.7253 28.1867 71.9919 28.4067 72.3386 28.62C72.6853 28.82 73.0053 28.92 73.2986 28.92C74.5386 28.92 75.1586 28.4133 75.1586 27.4C75.1586 27.0933 74.9853 26.84 74.6386 26.64C74.3053 26.4267 73.8853 26.2733 73.3786 26.18C72.8719 26.0867 72.3253 25.94 71.7386 25.74C71.1519 25.5267 70.6053 25.28 70.0986 25C69.5919 24.72 69.1653 24.28 68.8186 23.68C68.4853 23.0667 68.3186 22.3333 68.3186 21.48C68.3186 20.3067 68.7519 19.2867 69.6186 18.42C70.4986 17.54 71.6919 17.1 73.1986 17.1C73.9986 17.1 74.7253 17.2067 75.3786 17.42C76.0453 17.62 76.5053 17.8267 76.7586 18.04L77.2586 18.42C77.6719 18.8067 77.8786 19.1333 77.8786 19.4C77.8786 19.6667 77.7186 20.0333 77.3986 20.5C76.9453 21.1667 76.4786 21.5 75.9986 21.5C75.7186 21.5 75.3719 21.3667 74.9586 21.1C74.9186 21.0733 74.8386 21.0067 74.7186 20.9C74.6119 20.7933 74.5119 20.7067 74.4186 20.64C74.1386 20.4667 73.7786 20.38 73.3386 20.38C72.9119 20.38 72.5519 20.4867 72.2586 20.7C71.9786 20.9 71.8386 21.1867 71.8386 21.56C71.8386 21.92 72.0053 22.2133 72.3386 22.44C72.6853 22.6667 73.1119 22.82 73.6186 22.9C74.1253 22.98 74.6786 23.1067 75.2786 23.28C75.8786 23.44 76.4319 23.64 76.9386 23.88C77.4453 24.12 77.8653 24.54 78.1986 25.14C78.5453 25.7267 78.7186 26.4533 78.7186 27.32C78.7186 28.1867 78.5453 28.9533 78.1986 29.62C77.8519 30.2733 77.3986 30.78 76.8386 31.14C75.7586 31.8467 74.6053 32.2 73.3786 32.2C72.7519 32.2 72.1586 32.1267 71.5986 31.98C71.0386 31.82 70.5853 31.6267 70.2386 31.4C69.5319 30.9733 69.0386 30.56 68.7586 30.16L68.5786 29.94ZM81.2388 29.94C80.8921 29.5133 80.7188 29.1333 80.7188 28.8C80.7188 28.4533 81.0054 28 81.5788 27.44C81.9121 27.12 82.2654 26.96 82.6388 26.96C83.0121 26.96 83.5321 27.2933 84.1988 27.96C84.3854 28.1867 84.6521 28.4067 84.9988 28.62C85.3454 28.82 85.6654 28.92 85.9588 28.92C87.1988 28.92 87.8188 28.4133 87.8188 27.4C87.8188 27.0933 87.6454 26.84 87.2988 26.64C86.9654 26.4267 86.5454 26.2733 86.0388 26.18C85.5321 26.0867 84.9854 25.94 84.3988 25.74C83.8121 25.5267 83.2654 25.28 82.7588 25C82.2521 24.72 81.8254 24.28 81.4788 23.68C81.1454 23.0667 80.9788 22.3333 80.9788 21.48C80.9788 20.3067 81.4121 19.2867 82.2788 18.42C83.1588 17.54 84.3521 17.1 85.8588 17.1C86.6588 17.1 87.3854 17.2067 88.0388 17.42C88.7054 17.62 89.1654 17.8267 89.4188 18.04L89.9188 18.42C90.3321 18.8067 90.5388 19.1333 90.5388 19.4C90.5388 19.6667 90.3788 20.0333 90.0588 20.5C89.6054 21.1667 89.1388 21.5 88.6588 21.5C88.3788 21.5 88.0321 21.3667 87.6188 21.1C87.5788 21.0733 87.4988 21.0067 87.3788 20.9C87.2721 20.7933 87.1721 20.7067 87.0788 20.64C86.7988 20.4667 86.4388 20.38 85.9988 20.38C85.5721 20.38 85.2121 20.4867 84.9188 20.7C84.6388 20.9 84.4988 21.1867 84.4988 21.56C84.4988 21.92 84.6654 22.2133 84.9988 22.44C85.3454 22.6667 85.7721 22.82 86.2788 22.9C86.7854 22.98 87.3388 23.1067 87.9388 23.28C88.5388 23.44 89.0921 23.64 89.5988 23.88C90.1054 24.12 90.5254 24.54 90.8588 25.14C91.2054 25.7267 91.3788 26.4533 91.3788 27.32C91.3788 28.1867 91.2054 28.9533 90.8588 29.62C90.5121 30.2733 90.0588 30.78 89.4988 31.14C88.4188 31.8467 87.2654 32.2 86.0388 32.2C85.4121 32.2 84.8188 32.1267 84.2588 31.98C83.6988 31.82 83.2454 31.6267 82.8988 31.4C82.1921 30.9733 81.6988 30.56 81.4188 30.16L81.2388 29.94ZM93.6789 19.1C93.6789 18.7933 93.6856 18.5667 93.6989 18.42C93.7256 18.26 93.7922 18.08 93.8989 17.88C94.0856 17.52 94.6056 17.34 95.4589 17.34C96.3922 17.34 96.9456 17.5867 97.1189 18.08C97.1856 18.3067 97.2189 18.6533 97.2189 19.12V30.24C97.2189 30.56 97.2056 30.7933 97.1789 30.94C97.1656 31.0867 97.1056 31.26 96.9989 31.46C96.8122 31.82 96.2922 32 95.4389 32C94.5056 32 93.9589 31.7467 93.7989 31.24C93.7189 31.0267 93.6789 30.6867 93.6789 30.22V19.1Z" fill="#181226"/>
</svg>
