<svg width="146" height="17" viewBox="0 0 146 17" fill="none" xmlns="http://www.w3.org/2000/svg">
<path d="M19.0078 7.23047C19.6875 7.34766 20.2969 7.61719 20.8359 8.03906C21.375 8.46094 21.7969 8.98828 22.1016 9.62109C22.4297 10.2539 22.5938 10.9219 22.5938 11.625C22.5938 12.8672 22.1484 13.9336 21.2578 14.8242C20.3906 15.6914 19.3359 16.125 18.0938 16.125H5.15625C3.75 16.125 2.55469 15.6328 1.57031 14.6484C0.585938 13.6641 0.09375 12.4688 0.09375 11.0625C0.09375 9.96094 0.410156 8.97656 1.04297 8.10938C1.67578 7.24219 2.48438 6.63281 3.46875 6.28125C3.46875 6.16406 3.46875 6.07031 3.46875 6C3.46875 4.45312 4.01953 3.12891 5.12109 2.02734C6.22266 0.925781 7.54688 0.375 9.09375 0.375C10.125 0.375 11.0742 0.632812 11.9414 1.14844C12.8086 1.66406 13.4883 2.34375 13.9805 3.1875C14.543 2.8125 15.1641 2.625 15.8438 2.625C16.7812 2.625 17.5781 2.95312 18.2344 3.60938C18.8906 4.26563 19.2188 5.0625 19.2188 6C19.2188 6.42188 19.1484 6.83203 19.0078 7.23047ZM14.332 10.3242C14.4961 10.1602 14.5312 9.96094 14.4375 9.72656C14.3438 9.49219 14.168 9.375 13.9102 9.375H11.625V5.4375C11.625 5.27344 11.5664 5.14453 11.4492 5.05078C11.3555 4.93359 11.2266 4.875 11.0625 4.875H9.375C9.21094 4.875 9.07031 4.93359 8.95312 5.05078C8.85938 5.14453 8.8125 5.27344 8.8125 5.4375V9.375H6.52734C6.26953 9.375 6.09375 9.49219 6 9.72656C5.90625 9.96094 5.94141 10.1602 6.10547 10.3242L9.83203 14.0508C10.0898 14.3086 10.3477 14.3086 10.6055 14.0508L14.332 10.3242Z" fill="#D70751"/>
<path d="M28.321 15H29.6619V6.27273H28.321V15ZM29.0028 4.81818C29.5256 4.81818 29.9574 4.40909 29.9574 3.90909C29.9574 3.40909 29.5256 3 29.0028 3C28.4801 3 28.0483 3.40909 28.0483 3.90909C28.0483 4.40909 28.4801 4.81818 29.0028 4.81818ZM32.1179 15H33.4588V9.47727C33.4588 8.29545 34.3906 7.43182 35.6634 7.43182C36.0213 7.43182 36.3906 7.5 36.4815 7.52273V6.15909C36.3281 6.14773 35.9759 6.13636 35.777 6.13636C34.7315 6.13636 33.8224 6.72727 33.5043 7.59091H33.4134V6.27273H32.1179V15ZM44.2528 8.22727C43.8324 6.98864 42.8892 6.15909 41.1619 6.15909C39.321 6.15909 37.9574 7.20455 37.9574 8.68182C37.9574 9.88636 38.6733 10.6932 40.2756 11.0682L41.7301 11.4091C42.6108 11.6136 43.0256 12.0341 43.0256 12.6364C43.0256 13.3864 42.2301 14 40.9801 14C39.8835 14 39.196 13.5284 38.9574 12.5909L37.6847 12.9091C37.9972 14.392 39.2188 15.1818 41.0028 15.1818C43.0312 15.1818 44.4119 14.0739 44.4119 12.5682C44.4119 11.3523 43.6506 10.5852 42.0938 10.2045L40.7983 9.88636C39.7642 9.63068 39.2983 9.28409 39.2983 8.61364C39.2983 7.86364 40.0938 7.31818 41.1619 7.31818C42.3324 7.31818 42.8153 7.96591 43.0483 8.56818L44.2528 8.22727ZM52.6122 8.22727C52.1918 6.98864 51.2486 6.15909 49.5213 6.15909C47.6804 6.15909 46.3168 7.20455 46.3168 8.68182C46.3168 9.88636 47.0327 10.6932 48.6349 11.0682L50.0895 11.4091C50.9702 11.6136 51.3849 12.0341 51.3849 12.6364C51.3849 13.3864 50.5895 14 49.3395 14C48.2429 14 47.5554 13.5284 47.3168 12.5909L46.044 12.9091C46.3565 14.392 47.5781 15.1818 49.3622 15.1818C51.3906 15.1818 52.7713 14.0739 52.7713 12.5682C52.7713 11.3523 52.0099 10.5852 50.4531 10.2045L49.1577 9.88636C48.1236 9.63068 47.6577 9.28409 47.6577 8.61364C47.6577 7.86364 48.4531 7.31818 49.5213 7.31818C50.6918 7.31818 51.1747 7.96591 51.4077 8.56818L52.6122 8.22727ZM54.7898 15H56.1307V6.27273H54.7898V15ZM55.4716 4.81818C55.9943 4.81818 56.4261 4.40909 56.4261 3.90909C56.4261 3.40909 55.9943 3 55.4716 3C54.9489 3 54.517 3.40909 54.517 3.90909C54.517 4.40909 54.9489 4.81818 55.4716 4.81818ZM63.5866 9.38636H58.4957V10.6364H63.5866V9.38636ZM70.0142 3.36364H68.6051L65.696 5.29545V6.72727L68.5369 4.84091H68.6051V15H70.0142V3.36364ZM74.3608 15.0909C74.9233 15.0909 75.3835 14.6307 75.3835 14.0682C75.3835 13.5057 74.9233 13.0455 74.3608 13.0455C73.7983 13.0455 73.3381 13.5057 73.3381 14.0682C73.3381 14.6307 73.7983 15.0909 74.3608 15.0909ZM77.767 15H85.108V13.75H79.6989V13.6591L82.3125 10.8636C84.3125 8.72159 84.9034 7.72159 84.9034 6.43182C84.9034 4.63636 83.4489 3.20455 81.4034 3.20455C79.3636 3.20455 77.8125 4.59091 77.8125 6.63636H79.1534C79.1534 5.3125 80.0114 4.43182 81.358 4.43182C82.6193 4.43182 83.5852 5.20455 83.5852 6.43182C83.5852 7.50568 82.9545 8.30114 81.608 9.77273L77.767 13.9773V15ZM88.4545 15.0909C89.017 15.0909 89.4773 14.6307 89.4773 14.0682C89.4773 13.5057 89.017 13.0455 88.4545 13.0455C87.892 13.0455 87.4318 13.5057 87.4318 14.0682C87.4318 14.6307 87.892 15.0909 88.4545 15.0909ZM95.0156 15.1591C97.5838 15.1591 99.0611 12.983 99.0611 9.18182C99.0611 5.40909 97.5611 3.20455 95.0156 3.20455C92.4702 3.20455 90.9702 5.40909 90.9702 9.18182C90.9702 12.983 92.4474 15.1591 95.0156 15.1591ZM95.0156 13.9091C93.3224 13.9091 92.3338 12.2102 92.3338 9.18182C92.3338 6.15909 93.3338 4.43182 95.0156 4.43182C96.6974 4.43182 97.6974 6.15909 97.6974 9.18182C97.6974 12.2102 96.7088 13.9091 95.0156 13.9091ZM102.22 15.0909C102.783 15.0909 103.243 14.6307 103.243 14.0682C103.243 13.5057 102.783 13.0455 102.22 13.0455C101.658 13.0455 101.197 13.5057 101.197 14.0682C101.197 14.6307 101.658 15.0909 102.22 15.0909ZM109.445 6.27273H107.581V4.18182H106.24V6.27273H104.922V7.40909H106.24V12.8636C106.24 14.3864 107.467 15.1136 108.604 15.1136C109.104 15.1136 109.422 15.0227 109.604 14.9545L109.331 13.75C109.217 13.7727 109.036 13.8182 108.74 13.8182C108.149 13.8182 107.581 13.6364 107.581 12.5V7.40909H109.445V6.27273ZM114.03 15.2045C115.553 15.2045 116.348 14.3864 116.621 13.8182H116.689V15H118.03V9.25C118.03 6.47727 115.916 6.15909 114.803 6.15909C113.484 6.15909 111.984 6.61364 111.303 8.20455L112.575 8.65909C112.871 8.02273 113.57 7.34091 114.848 7.34091C116.081 7.34091 116.689 7.99432 116.689 9.11364V9.15909C116.689 9.80682 116.03 9.75 114.439 9.95455C112.82 10.1648 111.053 10.5227 111.053 12.5227C111.053 14.2273 112.371 15.2045 114.03 15.2045ZM114.234 14C113.166 14 112.393 13.5227 112.393 12.5909C112.393 11.5682 113.325 11.25 114.371 11.1136C114.939 11.0455 116.462 10.8864 116.689 10.6136V11.8409C116.689 12.9318 115.825 14 114.234 14ZM120.477 15H121.818V9.47727C121.818 8.29545 122.75 7.43182 124.023 7.43182C124.381 7.43182 124.75 7.5 124.841 7.52273V6.15909C124.688 6.14773 124.335 6.13636 124.136 6.13636C123.091 6.13636 122.182 6.72727 121.864 7.59091H121.773V6.27273H120.477V15ZM126.408 15.0909C126.97 15.0909 127.43 14.6307 127.43 14.0682C127.43 13.5057 126.97 13.0455 126.408 13.0455C125.845 13.0455 125.385 13.5057 125.385 14.0682C125.385 14.6307 125.845 15.0909 126.408 15.0909ZM130.837 6.27273H129.291L132.064 10.6364L129.291 15H130.837L132.928 11.6136L135.018 15H136.564L133.746 10.6364L136.564 6.27273H135.018L132.928 9.84091L130.837 6.27273ZM138.227 15H145.068V13.75H140.091V13.6591L144.909 7.34091V6.27273H138.386V7.52273H143.182V7.61364L138.227 13.9773V15Z" fill="#4E485B"/>
</svg>
