<svg width="126" height="20" viewBox="0 0 126 20" fill="none" xmlns="http://www.w3.org/2000/svg">
<path d="M7.73438 15.1562C7.875 15.4141 8.0625 15.625 8.29688 15.7891C8.53125 15.9297 8.78906 16 9.07031 16H13.5703V17.4062C13.5703 17.6406 13.4883 17.8398 13.3242 18.0039C13.1602 18.168 12.9609 18.25 12.7266 18.25H0.914062C0.679688 18.25 0.480469 18.168 0.316406 18.0039C0.152344 17.8398 0.0703125 17.6406 0.0703125 17.4062V1.09375C0.0703125 0.859375 0.152344 0.660156 0.316406 0.496094C0.480469 0.332031 0.679688 0.25 0.914062 0.25H7.94531V5.03125C7.94531 5.26563 8.02734 5.46484 8.19141 5.62891C8.35547 5.79297 8.55469 5.875 8.78906 5.875H13.5703V7.52734L9.07031 11.9922V14.875C8.92969 14.8516 8.82422 14.7812 8.75391 14.6641C8.54297 14.2422 8.17969 13.9844 7.66406 13.8906C7.17188 13.7734 6.76172 13.8555 6.43359 14.1367L5.94141 12.6953C5.80078 12.2969 5.53125 12.0977 5.13281 12.0977C4.73438 12.0977 4.46484 12.2969 4.32422 12.6953L3.69141 14.5938C3.62109 14.7812 3.49219 14.875 3.30469 14.875H2.88281C2.71875 14.875 2.57812 14.9336 2.46094 15.0508C2.36719 15.1445 2.32031 15.2734 2.32031 15.4375C2.32031 15.6016 2.36719 15.7422 2.46094 15.8594C2.57812 15.9531 2.71875 16 2.88281 16H3.30469C3.63281 16 3.92578 15.9062 4.18359 15.7188C4.46484 15.5312 4.65234 15.2734 4.74609 14.9453L5.13281 13.8555L5.73047 15.6133C5.80078 15.8477 5.96484 15.9766 6.22266 16C6.48047 16.0234 6.65625 15.918 6.75 15.6836L7.03125 15.1562C7.10156 15.0156 7.21875 14.9453 7.38281 14.9453C7.54688 14.9453 7.66406 15.0156 7.73438 15.1562ZM13.5703 4.53906V4.75H9.07031V0.25H9.28125C9.51562 0.25 9.71484 0.332031 9.87891 0.496094L13.3242 3.94141C13.4883 4.10547 13.5703 4.30469 13.5703 4.53906ZM10.1953 12.4492L15.9258 6.75391L18.3164 9.14453L12.6211 14.875H10.1953V12.4492ZM20.0742 6.12109C20.2383 6.30859 20.3203 6.53125 20.3203 6.78906C20.3203 7.02344 20.2383 7.22266 20.0742 7.38672L19.0898 8.37109L16.6992 5.98047L17.6836 4.99609C17.8477 4.83203 18.0469 4.75 18.2812 4.75C18.5391 4.75 18.7617 4.83203 18.9492 4.99609L20.0742 6.12109Z" fill="#0078D6"/>
<path d="M32.2294 9.22727C31.8089 7.98864 30.8658 7.15909 29.1385 7.15909C27.2976 7.15909 25.9339 8.20455 25.9339 9.68182C25.9339 10.8864 26.6499 11.6932 28.2521 12.0682L29.7067 12.4091C30.5874 12.6136 31.0021 13.0341 31.0021 13.6364C31.0021 14.3864 30.2067 15 28.9567 15C27.8601 15 27.1726 14.5284 26.9339 13.5909L25.6612 13.9091C25.9737 15.392 27.1953 16.1818 28.9794 16.1818C31.0078 16.1818 32.3885 15.0739 32.3885 13.5682C32.3885 12.3523 31.6271 11.5852 30.0703 11.2045L28.7749 10.8864C27.7408 10.6307 27.2749 10.2841 27.2749 9.61364C27.2749 8.86364 28.0703 8.31818 29.1385 8.31818C30.3089 8.31818 30.7919 8.96591 31.0249 9.56818L32.2294 9.22727ZM34.407 16H35.7479V7.27273H34.407V16ZM35.0888 5.81818C35.6115 5.81818 36.0433 5.40909 36.0433 4.90909C36.0433 4.40909 35.6115 4 35.0888 4C34.5661 4 34.1342 4.40909 34.1342 4.90909C34.1342 5.40909 34.5661 5.81818 35.0888 5.81818ZM41.7266 19.4545C43.8175 19.4545 45.4993 18.5 45.4993 16.25V7.27273H44.2038V8.65909H44.0675C43.772 8.20455 43.2266 7.15909 41.522 7.15909C39.3175 7.15909 37.7947 8.90909 37.7947 11.5909C37.7947 14.3182 39.3857 15.8636 41.4993 15.8636C43.2038 15.8636 43.7493 14.8636 44.0447 14.3864H44.1584V16.1591C44.1584 17.6136 43.1357 18.2727 41.7266 18.2727C40.1413 18.2727 39.5845 17.4375 39.2266 16.9545L38.1584 17.7045C38.7038 18.6193 39.7777 19.4545 41.7266 19.4545ZM41.6811 14.6591C39.9993 14.6591 39.1357 13.3864 39.1357 11.5682C39.1357 9.79545 39.9766 8.36364 41.6811 8.36364C43.3175 8.36364 44.1811 9.68182 44.1811 11.5682C44.1811 13.5 43.2947 14.6591 41.6811 14.6591ZM49.2947 10.75C49.2947 9.22727 50.2379 8.36364 51.522 8.36364C52.7663 8.36364 53.522 9.17614 53.522 10.5455V16H54.8629V10.4545C54.8629 8.22727 53.6754 7.15909 51.9084 7.15909C50.5902 7.15909 49.772 7.75 49.3629 8.63636H49.2493V7.27273H47.9538V16H49.2947V10.75ZM59.8814 16.2045C61.4041 16.2045 62.1996 15.3864 62.4723 14.8182H62.5405V16H63.8814V10.25C63.8814 7.47727 61.7678 7.15909 60.6541 7.15909C59.3359 7.15909 57.8359 7.61364 57.1541 9.20455L58.4268 9.65909C58.7223 9.02273 59.4212 8.34091 60.6996 8.34091C61.9325 8.34091 62.5405 8.99432 62.5405 10.1136V10.1591C62.5405 10.8068 61.8814 10.75 60.2905 10.9545C58.6712 11.1648 56.9041 11.5227 56.9041 13.5227C56.9041 15.2273 58.2223 16.2045 59.8814 16.2045ZM60.0859 15C59.0178 15 58.245 14.5227 58.245 13.5909C58.245 12.5682 59.1768 12.25 60.2223 12.1136C60.7905 12.0455 62.3132 11.8864 62.5405 11.6136V12.8409C62.5405 13.9318 61.6768 15 60.0859 15ZM70.1243 7.27273H68.2607V5.18182H66.9197V7.27273H65.6016V8.40909H66.9197V13.8636C66.9197 15.3864 68.147 16.1136 69.2834 16.1136C69.7834 16.1136 70.1016 16.0227 70.2834 15.9545L70.0107 14.75C69.897 14.7727 69.7152 14.8182 69.4197 14.8182C68.8288 14.8182 68.2607 14.6364 68.2607 13.5V8.40909H70.1243V7.27273ZM77.6413 12.4318C77.6413 14.0682 76.3913 14.8182 75.3913 14.8182C74.2777 14.8182 73.4822 14 73.4822 12.7273V7.27273H72.1413V12.8182C72.1413 15.0455 73.3232 16.1136 74.9595 16.1136C76.2777 16.1136 77.1413 15.4091 77.5504 14.5227H77.6413V16H78.9822V7.27273H77.6413V12.4318ZM81.4382 16H82.7791V10.4773C82.7791 9.29545 83.7109 8.43182 84.9837 8.43182C85.3416 8.43182 85.7109 8.5 85.8018 8.52273V7.15909C85.6484 7.14773 85.2962 7.13636 85.0973 7.13636C84.0518 7.13636 83.1428 7.72727 82.8246 8.59091H82.7337V7.27273H81.4382V16ZM90.7848 16.1818C92.5575 16.1818 93.853 15.2955 94.2621 13.9773L92.9666 13.6136C92.6257 14.5227 91.8359 14.9773 90.7848 14.9773C89.2109 14.9773 88.1257 13.9602 88.0632 12.0909H94.3984V11.5227C94.3984 8.27273 92.4666 7.15909 90.6484 7.15909C88.2848 7.15909 86.7166 9.02273 86.7166 11.7045C86.7166 14.3864 88.2621 16.1818 90.7848 16.1818ZM88.0632 10.9318C88.1541 9.57386 89.1143 8.36364 90.6484 8.36364C92.103 8.36364 93.0348 9.45455 93.0348 10.9318H88.0632ZM97.4155 16.0909C97.978 16.0909 98.4382 15.6307 98.4382 15.0682C98.4382 14.5057 97.978 14.0455 97.4155 14.0455C96.853 14.0455 96.3928 14.5057 96.3928 15.0682C96.3928 15.6307 96.853 16.0909 97.4155 16.0909ZM103.413 16.2045C104.935 16.2045 105.731 15.3864 106.004 14.8182H106.072V16H107.413V10.25C107.413 7.47727 105.299 7.15909 104.185 7.15909C102.867 7.15909 101.367 7.61364 100.685 9.20455L101.958 9.65909C102.254 9.02273 102.952 8.34091 104.231 8.34091C105.464 8.34091 106.072 8.99432 106.072 10.1136V10.1591C106.072 10.8068 105.413 10.75 103.822 10.9545C102.202 11.1648 100.435 11.5227 100.435 13.5227C100.435 15.2273 101.754 16.2045 103.413 16.2045ZM103.617 15C102.549 15 101.776 14.5227 101.776 13.5909C101.776 12.5682 102.708 12.25 103.754 12.1136C104.322 12.0455 105.844 11.8864 106.072 11.6136V12.8409C106.072 13.9318 105.208 15 103.617 15ZM116.042 9.22727C115.621 7.98864 114.678 7.15909 112.951 7.15909C111.11 7.15909 109.746 8.20455 109.746 9.68182C109.746 10.8864 110.462 11.6932 112.065 12.0682L113.519 12.4091C114.4 12.6136 114.815 13.0341 114.815 13.6364C114.815 14.3864 114.019 15 112.769 15C111.673 15 110.985 14.5284 110.746 13.5909L109.474 13.9091C109.786 15.392 111.008 16.1818 112.792 16.1818C114.82 16.1818 116.201 15.0739 116.201 13.5682C116.201 12.3523 115.44 11.5852 113.883 11.2045L112.587 10.8864C111.553 10.6307 111.087 10.2841 111.087 9.61364C111.087 8.86364 111.883 8.31818 112.951 8.31818C114.121 8.31818 114.604 8.96591 114.837 9.56818L116.042 9.22727ZM121.765 16.1818C123.697 16.1818 124.969 15 125.197 13.4545H123.856C123.606 14.4091 122.81 14.9773 121.765 14.9773C120.174 14.9773 119.151 13.6591 119.151 11.6364C119.151 9.65909 120.197 8.36364 121.765 8.36364C122.947 8.36364 123.651 9.09091 123.856 9.88636H125.197C124.969 8.25 123.583 7.15909 121.742 7.15909C119.379 7.15909 117.81 9.02273 117.81 11.6818C117.81 14.2955 119.31 16.1818 121.765 16.1818Z" fill="#4E485B"/>
</svg>
